<svg width="433" height="23" viewBox="0 0 433 23" fill="none" xmlns="http://www.w3.org/2000/svg">
<path fill-rule="evenodd" clip-rule="evenodd" d="M309.879 1.41207C309.735 1.50629 303.728 1.38652 296.53 1.14606C289.331 0.905227 280.926 0.69258 277.851 0.672794C269.62 0.619742 267.681 0.545573 267.098 0.261486C266.81 0.120465 266.451 0.0858565 266.301 0.184481C265.948 0.415283 260.589 0.418451 250.513 0.193765C246.096 0.0955501 242.301 0.0855808 242.08 0.172145C241.859 0.258687 239.64 0.346926 237.148 0.368172C234.657 0.389419 232.543 0.540339 232.449 0.703557C232.356 0.866797 231.785 0.852651 231.179 0.671957C230.196 0.378886 228.889 0.296195 226.155 0.355035C225.545 0.36811 225.377 0.568247 225.599 1.0196C225.897 1.62121 225.857 1.61841 225.018 0.978276C224.278 0.413937 223.604 0.309074 221.25 0.390412C219.673 0.444925 217.299 0.423174 215.973 0.341837C214.485 0.250614 213.559 0.350128 213.552 0.601601C213.544 0.874721 212.999 0.898556 211.897 0.674459C210.994 0.490305 210.026 0.346373 209.746 0.354906C209.466 0.363078 207.523 0.328465 205.428 0.277911C203.332 0.227357 201.406 0.259965 201.149 0.349644C200.58 0.547675 199.024 0.592577 192.711 0.592568C190.055 0.592634 187.195 0.628328 186.355 0.671246C182.695 0.859614 178.451 0.934296 174.912 0.872463C172.816 0.83598 169.84 0.939992 168.298 1.10328C165.431 1.40708 159.241 1.53842 156.134 1.36121C155.181 1.30678 154.208 1.46426 153.972 1.71092C153.623 2.07552 153.544 2.07067 153.548 1.68578C153.553 1.2417 152.362 1.20844 148.461 1.54281C145.531 1.79441 142.723 1.93673 140.317 1.95622C138.779 1.96906 136.261 2.01447 134.722 2.05761C133.183 2.10111 130.437 2.14245 128.62 2.14975C126.803 2.15705 125.315 2.18542 125.314 2.21248C125.313 2.26552 124.537 2.37439 122.576 2.59697C121.913 2.67242 119.623 2.76231 117.488 2.79709C113.303 2.86493 111.57 2.93257 111.567 3.02782C111.566 3.06101 110.192 3.10405 108.514 3.1235C103.639 3.18037 101.579 3.26642 98.5907 3.53719C97.0491 3.67703 94.5286 3.83464 92.9894 3.88753C91.4503 3.94077 89.2904 4.01495 88.1894 4.05276C87.0888 4.09059 85.962 4.2696 85.686 4.45024C85.3618 4.66241 84.8552 4.63805 84.2565 4.38178C83.6502 4.12231 83.0035 4.09335 82.3913 4.29744C81.8756 4.46956 80.2136 4.59192 78.6984 4.56926C77.1828 4.54658 75.3676 4.65584 74.6643 4.81157C73.961 4.96765 72.5847 5.1045 71.6059 5.11615C67.4201 5.1648 63.6765 5.43335 63.1198 5.72471C62.7442 5.92166 62.4103 5.90257 62.2251 5.67352C62.033 5.43731 61.3466 5.40701 60.2761 5.58737C59.3665 5.74071 57.39 5.89179 55.883 5.92294C54.3755 5.95371 52.9386 6.05904 52.6888 6.157C52.4395 6.25463 51.2669 6.36232 50.0836 6.39658C47.0674 6.48407 45.1969 6.62419 42.8351 6.93964C41.7126 7.08958 40.3971 7.10803 39.9111 6.98053C39.4252 6.85303 39.0239 6.88125 39.0188 7.04358C39.0133 7.20554 38.3491 7.3261 37.5418 7.31155C36.735 7.29665 35.6461 7.39061 35.123 7.52015C34.5993 7.64966 32.9839 7.73935 31.5328 7.71908C30.0821 7.69884 28.5803 7.85123 28.1958 8.0579C27.8113 8.26493 27.0505 8.42324 26.5045 8.41055C23.3311 8.33522 20.592 8.49353 20.0323 8.78476C19.68 8.96862 18.6457 9.19967 17.7345 9.2984C16.8229 9.3971 16.0734 9.58696 16.0687 9.71969C16.0634 9.85276 15.317 9.96726 14.4095 9.97403C11.6168 9.99493 10.7142 10.1695 10.8626 10.6596C10.9663 11.0022 10.8276 11.0193 10.3525 10.7222C9.44087 10.1519 6.67631 10.4001 5.41709 11.1655C4.83739 11.5176 3.99358 11.7898 3.54173 11.7703C2.43038 11.7224 -0.473262 13.6483 0.208702 13.9812C0.498526 14.123 0.588931 14.5423 0.409247 14.9135C0.0482635 15.659 0.570442 16.5958 1.08628 16.1282C1.2657 15.9658 1.9323 15.6506 2.56733 15.428C3.58584 15.0709 3.72013 15.1038 3.70324 15.7056C3.69248 16.0891 4.13561 16.4918 4.7149 16.6252C5.58308 16.8251 5.69433 16.7367 5.41932 16.0671C5.23946 15.6295 4.73193 15.0401 4.29103 14.7574C3.58999 14.3071 3.64783 14.2749 4.7537 14.4999C5.44867 14.6411 6.18119 14.7663 6.38217 14.7774C6.58263 14.789 6.60822 15.0361 6.43944 15.3268C6.27015 15.6175 6.38465 15.8663 6.69384 15.8796C7.00303 15.8929 7.26027 15.7465 7.26567 15.5542C7.27106 15.3623 7.63822 15.3203 8.08208 15.4615C8.52543 15.6027 9.09711 15.5002 9.35162 15.2341C9.72867 14.8396 9.81248 14.8599 9.80554 15.3429C9.80044 15.6692 10.1932 16.073 10.6775 16.2402C11.9995 16.6967 15.8246 16.7517 16.6173 16.3253C17.1422 16.043 17.5096 16.1018 18.1121 16.5656C18.757 17.0616 18.914 17.0817 18.9256 16.6689C18.9334 16.3879 19.3844 15.8958 19.9281 15.5757C20.889 15.0092 20.9031 15.0296 20.4522 16.3168C20.1046 17.3107 20.1693 17.7788 20.7116 18.1962C21.6814 18.9421 22.9357 18.6038 22.9739 17.5857C22.9953 17.0224 23.1315 16.9148 23.4054 17.2442C23.6385 17.5237 24.1858 17.6386 24.7122 17.5186C25.2105 17.405 25.7647 17.4925 25.9435 17.7129C26.312 18.1677 30.081 17.647 30.0952 17.1394C30.0997 16.9778 29.8963 16.9267 29.6435 17.0257C29.3901 17.1249 29.0574 16.9538 28.9028 16.6455C28.6747 16.1892 28.8066 16.1642 29.6162 16.5105C30.1622 16.7442 30.6124 16.8236 30.6162 16.6865C30.6201 16.5497 31.0719 16.7513 31.6203 17.1343C32.5172 17.761 32.6191 17.7708 32.6341 17.234C32.6433 16.9057 32.9936 16.6516 33.4124 16.6697C33.8313 16.6877 34.6804 16.3711 35.2997 15.9657C36.0298 15.4878 36.3117 15.4241 36.1023 15.7846C35.642 16.5754 36.193 16.8484 37.0784 16.2685C38.0633 15.6242 38.7776 15.6749 38.7576 16.3882C38.7488 16.7024 39.0294 16.8998 39.3807 16.8268C39.7324 16.7538 39.9702 16.3226 39.9098 15.8689C39.8129 15.1379 39.8951 15.1046 40.6296 15.5773C41.379 16.0593 41.4392 15.9976 41.2514 14.938C41.0856 13.9992 41.1752 13.8492 41.7 14.1872C42.0949 14.4412 42.2234 14.9517 42.0223 15.4708C41.7116 16.2727 41.8146 16.3317 43.5131 16.3236C45.3484 16.3149 46.081 15.8223 45.6223 14.9056C45.4861 14.6335 45.7129 14.2293 46.1263 14.0069C46.7492 13.6722 46.9299 13.793 47.1865 14.7173C47.4219 15.5676 47.7735 15.8436 48.6696 15.8822C49.9277 15.9364 50.6981 15.1836 49.9632 14.6184C49.7 14.4159 49.9553 14.1015 50.586 13.852C51.1735 13.6194 51.4985 13.5969 51.3072 13.8018C51.1033 14.0202 51.3806 14.1929 51.9746 14.2185C52.5331 14.2425 53.1357 14.106 53.3139 13.915C53.9711 13.21 54.6032 13.6342 54.2508 14.5441C53.9768 15.2515 54.0618 15.4459 54.6 15.3441C54.9909 15.2703 55.3932 14.7906 55.494 14.2784C55.6789 13.3406 56.952 12.3516 57.466 12.7469C57.6183 12.8636 57.3435 13.3629 56.8559 13.8555C56.3228 14.3946 56.1946 14.7615 56.5353 14.7762C56.8465 14.7896 57.105 14.6729 57.1093 14.5167C57.1137 14.3605 57.8205 14.2247 58.6793 14.2151C59.6378 14.2048 60.114 14.3351 59.9106 14.5529C59.4038 15.0963 60.4482 15.0142 61.1527 14.4547C61.4942 14.1833 62.0747 14.0569 62.442 14.1739C62.8093 14.2905 63.2458 14.2403 63.4125 14.0618C63.5786 13.8837 64.2626 13.8359 64.9322 13.9561C65.6018 14.0763 66.3089 14.0039 66.5039 13.7948C66.9588 13.3069 70.3556 13.4421 70.3414 13.9475C70.3355 14.1575 70.5866 14.2294 70.8996 14.107C71.3062 13.9479 71.2946 13.7997 70.8598 13.5873C70.0194 13.1769 70.9986 12.8246 73.6055 12.5992C75.0776 12.4715 75.8373 12.5711 76.3393 12.9572C77.3111 13.7046 78.1499 13.6659 77.7685 12.8916C77.4771 12.2993 77.5173 12.2967 78.2554 12.8581C79.192 13.5703 81.0275 13.4984 82.4281 12.6947C83.7497 11.9364 84.8354 11.8484 84.438 12.5321C84.2644 12.8309 84.3437 13.0847 84.6138 13.0963C84.8844 13.108 85.1108 12.9371 85.117 12.7167C85.1244 12.4536 85.7382 12.4237 86.8985 12.6291C88.4357 12.9012 88.6715 12.8489 88.6888 12.2308C88.7098 11.4822 91.2313 9.95121 91.7414 10.3774C91.9043 10.5137 91.7505 10.6856 91.3987 10.7589C91.0475 10.8326 90.7513 11.1887 90.7411 11.5506C90.7161 12.4417 92.4796 12.1843 93.1431 11.2L93.6385 10.4653L94.6505 11.2436C95.5621 11.9447 95.798 11.978 97.02 11.5798C98.2066 11.1935 98.3754 11.2073 98.3619 11.6904C98.3531 12.0025 98.7881 12.2621 99.3618 12.2869C99.9202 12.3109 100.382 12.1683 100.387 11.9698C100.393 11.7714 100.969 11.6337 101.667 11.6637C102.365 11.6938 102.941 11.5387 102.947 11.319C102.953 11.0993 103.27 11.019 103.652 11.1402C104.069 11.2731 104.325 11.1353 104.297 10.7931C104.268 10.4494 104.702 10.2181 105.396 10.2068C106.451 10.1898 106.485 10.2472 105.819 10.9194C105.152 11.5943 105.189 11.6519 106.3 11.6654C106.963 11.673 107.66 11.5781 107.849 11.4544C108.039 11.3303 108.47 11.4067 108.808 11.6239C109.634 12.1559 112.227 11.4429 111.893 10.7758C111.598 10.1844 112.224 10.1633 112.974 10.7396C113.363 11.0389 113.81 11.0599 114.547 10.8139C115.349 10.5465 115.638 10.5914 115.851 11.0171C116.001 11.318 116.546 11.5824 117.061 11.6046C118.384 11.6616 120.99 9.7922 120.619 9.05161C120.433 8.67948 120.524 8.55514 120.861 8.71995C121.158 8.86493 121.273 9.30013 121.117 9.68752C120.779 10.529 121.154 11.4198 121.86 11.4502C122.139 11.4622 122.243 11.2228 122.09 10.9182C121.78 10.2976 123.057 10.1945 123.548 10.8005C123.715 11.0063 124.239 11.1784 124.711 11.1833C125.24 11.1884 125.329 11.1113 124.941 10.9826C124.595 10.8672 124.338 10.422 124.369 9.99308C124.425 9.23762 124.44 9.23611 124.843 9.95317C125.072 10.3604 125.281 10.4817 125.308 10.2228C125.335 9.96389 125.582 9.86222 125.858 9.99692C126.134 10.1316 126.373 10.0296 126.389 9.77019C126.407 9.48486 126.713 9.59594 127.164 10.0514C127.803 10.6974 127.98 10.7306 128.406 10.2855C128.68 10.0004 128.809 9.5678 128.693 9.32474C128.572 9.06992 128.776 8.97573 129.174 9.10236C129.996 9.36428 130.544 10.3112 130.129 10.7553C129.743 11.1693 130.516 11.1885 132.208 10.8073C133.106 10.6047 133.479 10.3126 133.298 9.9512C133.147 9.64956 133.245 9.41213 133.515 9.42377C133.785 9.43543 134.002 9.59723 133.997 9.78339C133.976 10.5248 136.155 10.0602 136.639 9.21992C137.049 8.50828 137.232 8.44499 137.598 8.88955C137.846 9.1914 137.912 9.72921 137.743 10.0842C137.475 10.6485 137.651 10.7099 139.139 10.5692C140.076 10.4806 141.246 10.4281 141.741 10.4519C142.236 10.4761 142.512 10.3374 142.355 10.1439C142.198 9.95074 142.407 9.80694 142.819 9.8247C143.231 9.84244 143.659 10.0639 143.769 10.3172C143.926 10.6761 144.158 10.6767 144.825 10.3201C145.296 10.0687 146.141 9.96854 146.702 10.0979C147.264 10.2272 148.055 10.1168 148.459 9.85205C148.91 9.55686 149.31 9.51484 149.495 9.74281C149.905 10.2485 152.223 10.1761 152.903 9.63681C153.321 9.30479 153.189 9.18787 152.358 9.15205C151.374 9.10966 151.33 9.02536 151.916 8.32023C152.481 7.64196 152.592 7.6222 152.738 8.17504C152.83 8.52688 153.331 8.83272 153.848 8.85503C154.366 8.87735 155.086 9.12258 155.448 9.40006C155.812 9.67907 157.469 10.0023 159.161 10.1239C161.781 10.3123 162.428 10.2257 163.702 9.51477C165.06 8.75692 166.937 8.69261 166.252 9.42743C166.093 9.59829 166.185 9.74784 166.458 9.75959C166.73 9.77132 167.074 9.58276 167.222 9.34098C167.436 8.989 167.496 8.99156 167.518 9.35373C167.56 10.0614 170.954 10.07 171.55 9.36384C171.958 8.88076 172.19 8.85968 172.799 9.25224C173.399 9.63784 173.604 9.64307 173.826 9.27949C174.019 8.96272 174.227 8.94856 174.512 9.2332C174.736 9.4578 175.72 9.66275 176.698 9.68863C178.201 9.72844 178.457 9.61739 178.351 8.97275C178.283 8.5533 178.598 8.01024 179.053 7.76576C179.782 7.37382 179.837 7.42823 179.525 8.23334C179.324 8.75242 179.406 9.25876 179.715 9.4097C180.013 9.55512 180.262 9.49684 180.268 9.28001C180.274 9.05054 180.861 8.97903 181.67 9.1089C182.436 9.23146 183.061 9.35884 183.06 9.39131C183.059 9.42378 183.714 9.55532 184.516 9.68306C185.803 9.88806 185.943 9.82329 185.711 9.12984C185.466 8.40047 185.511 8.3883 186.325 8.9569C187.417 9.71992 188.386 9.78698 188.406 9.10111C188.414 8.815 188.691 8.47546 189.022 8.34595C189.426 8.18782 189.511 8.30275 189.282 8.69707C189.031 9.12876 189.221 9.29553 190.003 9.32922C190.846 9.36556 190.948 9.26772 190.499 8.85392C190.044 8.43518 190.185 8.34369 191.212 8.38795C191.959 8.42013 192.485 8.64943 192.477 8.93915C192.458 9.60373 193.292 9.60821 193.677 8.94572C193.846 8.65498 194.277 8.44272 194.634 8.47366C195.143 8.51797 195.145 8.56358 194.644 8.68468C194.293 8.76995 194 8.99395 193.995 9.18301C193.989 9.38577 194.404 9.38633 195.011 9.18383C195.576 8.99538 196.034 8.97394 196.029 9.1363C196.01 9.83155 198.815 9.65441 200.436 8.85803C202.091 8.04434 202.16 8.04007 202.14 8.75011C202.114 9.68132 203.873 9.8337 204.635 8.96635C204.932 8.6284 205.171 8.55816 205.173 8.80892C205.174 9.07087 205.838 9.28909 206.753 9.32854C207.84 9.3754 208.256 9.247 208.09 8.91546C207.777 8.29116 211.318 8.2342 211.822 8.85556C212.017 9.09626 212.446 9.18878 212.774 9.06022C213.209 8.89003 213.223 8.69125 212.826 8.32594C212.501 8.0262 212.476 7.7495 212.763 7.63689C213.028 7.5334 213.36 7.79588 213.501 8.21956L213.759 8.98998L215.288 8.29256C217.076 7.47596 217.644 7.42925 217.235 8.13121C217.074 8.40961 217.212 8.72768 217.542 8.83837C217.873 8.94943 217.698 9.03363 217.153 9.02567C216.549 9.017 216.347 9.14555 216.635 9.35449C216.896 9.54308 217.847 9.64762 218.748 9.58676C220.053 9.49849 220.369 9.31741 220.298 8.69882C220.245 8.23995 220.467 7.96957 220.84 8.03911C221.188 8.10395 221.482 7.95404 221.493 7.70599C221.507 7.4057 221.672 7.44282 221.99 7.81774C222.253 8.12705 222.479 8.21808 222.493 8.02001C222.507 7.82195 222.705 7.88356 222.932 8.15668C223.16 8.42983 224.286 8.78398 225.436 8.94334C227.204 9.18895 227.692 9.10809 228.601 8.42046C229.573 7.68427 229.646 7.67549 229.373 8.3295C229.149 8.86747 229.331 9.08263 230.086 9.17296C231.676 9.36285 232.755 9.40066 234.402 9.32461C235.241 9.28566 236.615 9.25272 237.454 9.25166C238.845 9.24948 238.901 9.20311 238.092 8.72505C237.252 8.22903 237.261 8.1929 238.238 8.05403C238.904 7.95957 239.265 8.08313 239.256 8.40352C239.248 8.6889 239.558 8.82796 239.985 8.73041C240.394 8.63749 241.003 8.69553 241.339 8.85956C241.676 9.02397 242.884 9.16704 244.024 9.17787C245.164 9.18872 247.182 9.20814 248.51 9.22129C250.042 9.23637 250.929 9.08022 250.937 8.79411C250.944 8.51919 251.643 8.37303 252.726 8.41969C253.704 8.4618 254.498 8.66836 254.492 8.87834C254.487 9.08832 254.723 9.16607 255.018 9.05055C255.313 8.93502 255.877 9.04817 256.271 9.30177C256.767 9.62079 257.424 9.67801 258.404 9.48687C259.183 9.33512 260.7 9.31487 261.775 9.44173C263.153 9.60444 263.626 9.5461 263.381 9.24402C263.168 8.98087 263.335 8.87247 263.815 8.96359C264.244 9.04494 264.972 8.80287 265.432 8.42533C266.257 7.74852 266.264 7.74991 265.931 8.53714C265.69 9.10941 265.811 9.34475 266.36 9.3684C266.781 9.38653 267.281 9.23434 267.472 9.0305C267.662 8.8263 268.135 8.76035 268.522 8.8836C268.914 9.00812 269.233 8.88931 269.241 8.61691C269.267 7.68607 270.763 7.74801 271.594 8.71432C272.259 9.48747 272.755 9.65262 274.419 9.65463C275.556 9.65592 276.56 9.44813 276.717 9.17926C276.869 8.91636 277.334 8.80959 277.749 8.94163C278.164 9.07366 278.862 8.99105 279.301 8.75819C279.988 8.39438 280.055 8.44679 279.783 9.13401C279.608 9.57333 279.532 9.93599 279.613 9.93949C280.129 9.96171 282.677 8.95351 283.058 8.57655C283.349 8.28887 283.392 8.47209 283.176 9.07325L282.834 10.0259L287.279 10.0787C289.723 10.1074 291.955 9.98 292.237 9.79495C292.52 9.6099 292.906 8.86073 293.096 8.13019C293.285 7.39964 293.729 6.74615 294.082 6.67826C294.575 6.5832 294.595 6.77659 294.169 7.51538C293.864 8.04338 293.726 8.56047 293.861 8.66417C293.995 8.76787 293.869 9.14641 293.579 9.50491C293.171 10.0104 293.228 10.1649 293.832 10.1909C294.261 10.2094 294.616 10.0723 294.621 9.88609C294.626 9.69992 295.03 9.58259 295.518 9.62564C296.005 9.66833 296.898 9.60963 297.501 9.49546C298.159 9.371 298.867 9.48495 299.272 9.78092C300.365 10.5786 301.922 10.4399 302.597 9.48492L303.216 8.60851L303.229 9.61437C303.242 10.6152 303.255 10.6197 306.166 10.5718C307.774 10.5453 310.16 10.5614 311.468 10.6077C313.447 10.6778 313.907 10.564 314.216 9.92671C314.545 9.24695 314.638 9.2311 315.044 9.78429C315.401 10.2696 315.721 10.3333 316.5 10.0735C317.186 9.84483 317.496 9.85743 317.488 10.114C317.483 10.3192 317.821 10.5021 318.24 10.5202C318.658 10.5382 318.997 10.7092 318.991 10.9001C318.976 11.4532 328.463 11.5098 329.486 10.9625C330.195 10.5835 330.389 10.5878 330.563 10.9873C330.719 11.3433 331.139 11.2642 332.125 10.6934C332.868 10.2637 333.156 10.1869 332.766 10.5226C331.886 11.2791 332.389 11.7581 333.458 11.1832C334.098 10.839 334.245 10.8526 334.247 11.2562C334.248 11.5893 334.498 11.5347 335.009 11.0885C335.426 10.7236 335.917 10.5392 336.098 10.6781C336.279 10.8174 336.757 10.6636 337.161 10.3364C337.699 9.90044 337.963 9.86554 338.148 10.2062C338.287 10.4618 338.669 10.5863 338.998 10.4823C339.326 10.3787 339.041 10.5861 338.364 10.943C337.57 11.3618 337.33 11.6885 337.688 11.8632C337.993 12.0122 338.759 11.7436 339.39 11.2658C340.609 10.3433 342.181 10.1257 341.704 10.9454C341.426 11.4225 342.181 12.2743 342.909 12.3056C343.113 12.3144 343.391 11.9605 343.527 11.5195C343.77 10.7349 343.782 10.734 344.107 11.4784C344.409 12.1694 344.799 12.248 348.341 12.3302C350.487 12.3801 352.301 12.3892 352.372 12.3507C352.762 12.1382 356.997 12.3842 358.016 12.6785C358.779 12.8988 359.484 12.8775 359.963 12.62C360.461 12.3521 360.825 12.3454 361.045 12.6002C361.656 13.3067 363.582 13.5096 364.282 12.9412C364.853 12.4782 364.819 12.4269 364.056 12.5959C363.501 12.719 363.166 12.6226 363.174 12.3412C363.197 11.5341 365.101 11.8134 365.402 12.668C365.638 13.3378 365.768 13.3835 366.199 12.948C366.482 12.6622 366.712 12.6139 366.711 12.8411C366.705 13.4589 368.161 13.8016 369.249 13.4385C369.8 13.2545 370.322 13.2608 370.478 13.4532C370.804 13.8544 374.871 13.9271 375.837 13.5486C376.292 13.371 376.396 13.4148 376.149 13.6798C375.909 13.9368 376.193 14.0906 376.948 14.113C378.074 14.1464 381.664 14.5966 381.661 14.7041C381.66 14.7329 382.744 14.8537 384.068 14.9729C385.392 15.0921 386.48 15.0851 386.485 14.9575C386.49 14.8301 387.521 14.7554 388.777 14.7922C390.458 14.8407 391.057 14.9969 391.046 15.3834C391.036 15.7265 391.376 15.8592 392.027 15.767C392.575 15.6891 393.125 15.8158 393.25 16.0484C393.375 16.2809 393.503 16.1763 393.535 15.8161C393.588 15.2202 393.665 15.2152 394.375 15.762C395.112 16.3284 395.624 16.4281 399.397 16.7413C400.235 16.811 401.412 17.0004 402.011 17.1624C402.611 17.3248 403.247 17.3006 403.426 17.1092C403.633 16.888 404.191 16.9002 404.959 17.1424C405.801 17.4081 406.246 17.3958 406.427 17.1016C406.57 16.8694 406.697 16.9641 406.709 17.3125C406.721 17.6609 406.902 17.9591 407.112 17.9757C408.713 18.1021 411.699 18.6585 412.421 18.9649C413.137 19.2685 413.306 19.1851 413.331 18.5135C413.357 17.8492 413.455 17.7986 413.839 18.2519C414.232 18.7149 414.32 18.7241 414.339 18.3034C414.35 18.0225 414.502 17.9015 414.674 18.0343C414.848 18.1671 415.42 18.1322 415.947 17.9562C417.052 17.5876 417.082 17.6536 416.376 18.8795C415.968 19.5862 416.012 19.7904 416.574 19.8146C416.969 19.8317 417.432 19.6963 417.603 19.5136C417.95 19.1406 419.467 19.5112 419.977 20.0938C420.16 20.3026 420.924 20.5591 421.675 20.663C422.426 20.7672 423.359 21.0979 423.75 21.3982C424.322 21.8379 424.656 21.8671 425.463 21.5476C426.014 21.3293 426.469 21.0418 426.473 20.9087C426.482 20.5757 427.521 20.7747 428.874 21.368C429.734 21.7453 430.007 21.7614 430.016 21.4342C430.023 21.1773 430.429 21.2855 431.028 21.7039C432.511 22.7399 432.866 22.1422 431.711 20.5532C430.932 19.4815 430.815 18.9566 431.203 18.2841C431.551 17.6821 431.532 17.3595 431.144 17.2503C430.834 17.1629 430.375 16.6775 430.124 16.1714C429.874 15.6657 429.233 15.1515 428.7 15.0289C428.167 14.9062 427.624 14.5931 427.494 14.3332C427.236 13.8163 417.976 11.3124 417.135 11.532C417.025 11.5605 416.765 11.373 416.556 11.1155C416.347 10.8583 414.051 10.2713 411.453 9.81151C408.855 9.35135 406.161 8.85559 405.466 8.70934C404.771 8.56308 402.948 8.29888 401.416 8.12266C399.883 7.94608 398.189 7.6903 397.651 7.55405C397.113 7.41744 395.403 7.20326 393.852 7.07789C392.301 6.95216 390.463 6.71801 389.768 6.55732C389.074 6.39664 386.566 6.12563 384.194 5.95481C381.822 5.78398 379.883 5.62093 379.884 5.59279C379.884 5.56465 378.916 5.43693 377.731 5.30931C376.411 5.16718 375.573 5.22788 375.566 5.46565C375.559 5.72866 375.331 5.70944 374.859 5.4059C374.477 5.15932 372.312 4.85185 370.049 4.72291C367.787 4.59364 365.938 4.39768 365.942 4.28727C365.945 4.17723 362.236 3.88376 357.7 3.63521C353.163 3.387 349.11 3.16176 348.691 3.13469C348.273 3.10762 346.444 3.07938 344.627 3.07152C342.81 3.06367 340.755 2.93141 340.06 2.77758C339.365 2.62375 338.052 2.58375 337.14 2.68823C336.228 2.79307 335.486 2.74449 335.491 2.57997C335.495 2.41545 334.869 2.34401 334.097 2.42095C332.121 2.61791 314.298 1.90987 312.024 1.54423C310.988 1.3775 310.023 1.31821 309.879 1.41207ZM354.571 10.7199C354.571 10.8626 354.245 10.8756 353.847 10.749C353.449 10.6224 353.261 10.2806 353.431 9.98949C353.681 9.55922 353.816 9.55384 354.154 9.96035C354.383 10.2353 354.57 10.5768 354.571 10.7199ZM257.154 5.99158C257.171 6.14115 257.254 6.55217 257.338 6.90438C257.422 7.25657 257.312 7.45738 257.094 7.35081C256.495 7.0588 256.135 5.67673 256.663 5.69948C256.916 5.71038 257.137 5.842 257.154 5.99158ZM316.011 8.4161C316.009 8.50378 315.775 8.66567 315.493 8.77631C315.21 8.88694 314.984 8.8053 314.99 8.59532C314.995 8.38534 315.229 8.22309 315.508 8.23512C315.787 8.24715 316.014 8.32843 316.011 8.4161ZM295.921 8.83604C296.088 9.04191 295.983 9.19991 295.687 9.18718C295.392 9.17445 295.154 9.00166 295.16 8.80322C295.165 8.60479 295.27 8.44676 295.394 8.45208C295.517 8.45739 295.754 8.63016 295.921 8.83604ZM251.483 7.44173C251.48 7.52941 251.247 7.6913 250.964 7.80193C250.682 7.91257 250.455 7.83093 250.461 7.62095C250.467 7.41097 250.7 7.24871 250.98 7.26074C251.259 7.27278 251.485 7.35406 251.483 7.44173ZM254.39 7.62587C254.218 7.73839 253.779 7.7325 253.416 7.61246C253.014 7.47991 253.137 7.39959 253.729 7.40775C254.265 7.4153 254.562 7.51335 254.39 7.62587ZM256.3 7.85124C256.467 8.05712 256.234 8.20963 255.783 8.19016C255.331 8.17069 255.107 7.99849 255.285 7.80749C255.463 7.61649 255.696 7.46398 255.803 7.46857C255.909 7.47317 256.133 7.64537 256.3 7.85124ZM261.632 8.03874C261.628 8.21408 261.107 8.42752 260.475 8.51302C259.367 8.66284 259.361 8.65177 260.327 8.18732C261.494 7.62675 261.645 7.60939 261.632 8.03874ZM243.35 7.4525C243.347 7.54017 243.114 7.70206 242.831 7.8127C242.549 7.92334 242.322 7.84169 242.328 7.63171C242.334 7.42173 242.567 7.25948 242.846 7.27151C243.126 7.28354 243.352 7.36483 243.35 7.4525ZM219.846 6.85984C219.674 6.97236 219.236 6.96647 218.873 6.84643C218.471 6.71388 218.593 6.63356 219.185 6.64173C219.721 6.64927 220.018 6.74732 219.846 6.85984ZM225.371 8.39257C225.201 8.67314 225.083 8.58244 225.071 8.16107C225.06 7.77985 225.185 7.57215 225.351 7.6992C225.516 7.82624 225.525 8.1384 225.371 8.39257ZM403.731 16.1908C403.705 17.0985 402.908 17.0237 402.828 16.106C402.782 15.5871 402.96 15.3086 403.247 15.4489C403.521 15.5828 403.739 15.9166 403.731 16.1908ZM192.777 7.28142C192.944 7.48729 192.839 7.64529 192.543 7.63256C192.248 7.61983 192.01 7.44704 192.016 7.2486C192.021 7.05017 192.127 6.89214 192.25 6.89746C192.373 6.90277 192.61 7.07554 192.777 7.28142ZM220.775 8.68689C220.923 8.98113 221.247 9.23063 221.496 9.24137C222.226 9.27283 222.035 8.63784 221.238 8.38423C220.75 8.22882 220.596 8.32914 220.775 8.68689ZM418.91 17.2411C418.329 17.7023 418.355 17.8479 419.076 18.169C420.279 18.7056 420.178 19.3761 418.972 18.8596C418.456 18.6386 417.85 18.5663 417.625 18.6986C417.4 18.8308 417.375 18.6484 417.57 18.2927C417.764 17.9373 417.929 17.4159 417.937 17.1345C417.945 16.8531 418.322 16.6389 418.775 16.6584C419.472 16.6884 419.493 16.7782 418.91 17.2411ZM165.422 7.25429C165.252 7.53486 165.134 7.44417 165.122 7.0228C165.111 6.64158 165.236 6.43387 165.402 6.56092C165.567 6.68797 165.576 7.00012 165.422 7.25429ZM409.296 17.1317C409.293 17.2194 409.06 17.3813 408.778 17.4919C408.495 17.6026 408.268 17.5209 408.274 17.3109C408.28 17.1009 408.513 16.9387 408.793 16.9507C409.072 16.9628 409.298 17.044 409.296 17.1317ZM410.813 17.399C410.808 17.5975 410.575 17.75 410.296 17.7379C410.016 17.7259 409.792 17.5537 409.798 17.3553C409.804 17.1568 410.037 17.0043 410.316 17.0164C410.595 17.0284 410.819 17.2006 410.813 17.399ZM164.052 7.48856C164.041 7.88543 163.825 8.20122 163.572 8.19032C163.318 8.17941 163.24 7.85093 163.397 7.46034C163.554 7.06977 163.771 6.75398 163.878 6.75859C163.984 6.76319 164.063 7.09169 164.052 7.48856ZM167.098 7.61982C167.093 7.81825 166.988 7.97628 166.864 7.97096C166.741 7.96565 166.504 7.79288 166.337 7.587C166.17 7.38113 166.275 7.22313 166.571 7.23586C166.866 7.24859 167.104 7.42138 167.098 7.61982ZM162.346 8.20541C162.176 8.48598 162.058 8.39529 162.045 7.97391C162.034 7.5927 162.16 7.385 162.325 7.51204C162.49 7.63909 162.5 7.95124 162.346 8.20541ZM425.462 20.6791C425.455 20.944 425.106 21.1457 424.687 21.1276C423.884 21.093 423.706 20.766 424.285 20.3878C424.856 20.0136 425.477 20.1672 425.462 20.6791ZM93.5119 11.6978C93.3217 11.9013 93.273 12.1502 93.4034 12.2505C93.5337 12.3507 93.7828 12.1881 93.9569 11.8889C94.3179 11.268 94.0286 11.1435 93.5119 11.6978ZM43.4842 14.2922C43.113 14.5352 42.8758 14.5463 42.8821 14.3205C42.8879 14.1152 43.0479 13.8458 43.238 13.7217C43.4275 13.5973 43.6988 13.5845 43.8401 13.6935C43.9814 13.8022 43.8213 14.0716 43.4842 14.2922ZM14.8979 15.286C14.8958 15.3607 14.4882 15.6278 13.9917 15.8791C13.1739 16.2929 13.1565 16.2795 13.8036 15.7344C14.484 15.162 14.9062 14.9891 14.8979 15.286ZM22.3269 17.2757C22.2204 18.0665 21.4228 18.2496 21.4444 17.4786C21.4565 17.0482 21.9217 16.5358 22.2863 16.5515C22.3619 16.5548 22.3802 16.8807 22.3269 17.2757Z" fill="#991B1B"/>
</svg>
